HIERARCHY
ROOT Hips
{
	OFFSET -3.958830 18.904000 13.208200
	CHANNELS 6 Xposition Yposition Zposition Zrotation Yrotation Xrotation 
	JOINT LHipJoint
	{
		OFFSET 0.000000 0.000000 0.000000
		CHANNELS 3 Zrotation Yrotation Xrotation
		JOINT LeftUpLeg
		{
			OFFSET 1.800000 -1.400000 0.085000
			CHANNELS 3 Zrotation Yrotation Xrotation
			JOINT LeftLeg
			{
				OFFSET 2.215000 -6.000000 0.000000
				CHANNELS 3 Zrotation Yrotation Xrotation
				JOINT LeftFoot
				{
					OFFSET 2.500000 -6.900000 0.000000
					CHANNELS 3 Zrotation Yrotation Xrotation
					JOINT LeftToeBase
					{
						OFFSET 0.200000 -0.500000 1.950000
						CHANNELS 3 Zrotation Yrotation Xrotation
						End Site
						{
							OFFSET 0.000000 0.000000 0.000000
						}
					}
				}
			}
		}
	}
	JOINT RHipJoint
	{
		OFFSET 0.000000 0.000000 0.000000
		CHANNELS 3 Zrotation Yrotation Xrotation
		JOINT RightUpLeg
		{
			OFFSET -1.800000 -1.400000 0.085000
			CHANNELS 3 Zrotation Yrotation Xrotation
			JOINT RightLeg
			{
				OFFSET -2.215000 -6.000000 0.000000
				CHANNELS 3 Zrotation Yrotation Xrotation
				JOINT RightFoot
				{
					OFFSET -2.500000 -6.900000 0.000000
					CHANNELS 3 Zrotation Yrotation Xrotation
					JOINT RightToeBase
					{
						OFFSET -0.200000 -0.500000 1.950000
						CHANNELS 3 Zrotation Yrotation Xrotation
						End Site
						{
							OFFSET 0.000000 0.000000 0.000000
						}
					}
				}
			}
		}
	}
	JOINT LowerBack
	{
		OFFSET 0.000000 0.000000 0.000000
		CHANNELS 3 Zrotation Yrotation Xrotation
		JOINT Spine
		{
			OFFSET -0.087000 1.940000 -0.288900
			CHANNELS 3 Zrotation Yrotation Xrotation
			JOINT Spine1
			{
				OFFSET 0.000000 1.950000 0.060000
				CHANNELS 3 Zrotation Yrotation Xrotation
				JOINT Neck
				{
					OFFSET 0.000000 0.000000 0.000000
					CHANNELS 3 Zrotation Yrotation Xrotation
					JOINT Neck1
					{
						OFFSET 0.000000 1.600000 0.340000
						CHANNELS 3 Zrotation Yrotation Xrotation
						JOINT Head
						{
							OFFSET 0.000000 1.667000 -0.240000
							CHANNELS 3 Zrotation Yrotation Xrotation
							End Site
							{
								OFFSET 0.000000 0.000000 0.000000
							}
						}
					}
				}
				JOINT LeftShoulder
				{
					OFFSET 0.000000 0.000000 0.000000
					CHANNELS 3 Zrotation Yrotation Xrotation
					JOINT LeftArm
					{
						OFFSET 2.700000 1.550000 -0.730000
						CHANNELS 3 Zrotation Yrotation Xrotation
						JOINT LeftForeArm
						{
							OFFSET 5.450000 0.000000 0.000000
							CHANNELS 3 Zrotation Yrotation Xrotation
							JOINT LeftHand
							{
								OFFSET 3.450000 0.000000 0.000000
								CHANNELS 3 Zrotation Yrotation Xrotation
								JOINT LeftHandIndex1
								{
									OFFSET 0.750000 0.000000 0.000000
									CHANNELS 3 Zrotation Yrotation Xrotation
									End Site
									{
										OFFSET 0.000000 0.000000 0.000000
									}
								}
							}
						}
					}
				}
				JOINT RightShoulder
				{
					OFFSET 0.000000 0.000000 0.000000
					CHANNELS 3 Zrotation Yrotation Xrotation
					JOINT RightArm
					{
						OFFSET -2.700000 1.550000 -0.730000
						CHANNELS 3 Zrotation Yrotation Xrotation
						JOINT RightForeArm
						{
							OFFSET -5.450000 0.000000 0.000000
							CHANNELS 3 Zrotation Yrotation Xrotation
							JOINT RightHand
							{
								OFFSET -3.450000 0.000000 0.000000
								CHANNELS 3 Zrotation Yrotation Xrotation
								JOINT RightHandIndex1
								{
									OFFSET -0.750000 0.000000 0.000000
									CHANNELS 3 Zrotation Yrotation Xrotation
									End Site
									{
										OFFSET 0.000000 0.000000 0.000000
									}
								}
							}
						}
					}
				}
			}
		}
	}
}
MOTION
Frames: 14
Frame Time: 0.016667
-2.252580 17.063180 -2.745260 -9.662778 -65.948505 4.213417 -15.303747 12.932057 3.883873 7.726805 0.695706 -43.367301 15.630720 4.958834 45.423183 0.197777 7.306765 1.782388 0.634980 0.527330 0.450020 18.100128 -11.391643 2.414478 -7.676083 -0.082296 2.797747 2.631824 -5.653412 17.880700 -0.663558 -4.617343 2.811508 0.261950 0.044770 0.181330 -3.610046 -0.640519 -7.517606 -5.784097 8.078313 22.607580 -9.784709 10.172996 3.168715 1.969945 -11.965070 -11.130198 -24.750888 16.865088 28.998339 2.417980 8.116590 -17.533530 -10.678269 -2.038771 4.319599 -23.003219 9.274548 -6.851151 23.163501 -38.003957 -7.134534 -3.366962 3.107642 0.455300 -0.114620 0.237630 0.248520 6.525898 16.526238 4.111599 -1.826176 10.487113 -6.780197 0.798556 68.929540 1.938707 2.087821 -1.748909 -0.005950 0.205000 -0.243890 -0.036940 
-2.291360 17.033400 -2.695430 -9.761303 -67.093906 3.024513 -15.223704 13.092828 3.752812 7.253605 0.492689 -41.501763 14.467201 4.619491 40.867617 0.086017 6.362186 2.121237 0.630250 0.538940 0.400910 18.086470 -11.625298 2.453402 -9.414953 0.476055 3.988405 3.199432 -6.168912 20.427173 -0.707928 -4.960644 2.699030 0.262740 0.072190 0.143960 -3.810435 -0.561033 -7.429958 -5.752815 7.290315 24.372215 -9.639800 9.100648 1.565955 1.206343 -12.891117 -11.304114 -27.143666 18.210375 27.439247 6.423680 7.370370 -16.998760 -9.861560 -0.962990 5.081681 -22.991594 13.880552 -7.230469 26.333854 -37.194318 -7.736558 -3.335937 3.137106 0.441670 -0.148570 0.221850 0.267590 7.412338 15.890588 3.697017 -7.514596 7.890806 -6.569886 -8.803610 66.963930 -2.978547 2.159475 -1.678361 -0.002930 0.228010 -0.246460 0.003450 
-2.423960 16.973060 -2.604380 -12.003988 -69.831136 6.635766 -15.185178 13.006993 3.774952 7.832120 0.581651 -41.639146 11.744241 4.893583 34.213519 -0.063107 5.214605 2.552161 0.655680 0.607960 0.353840 18.101816 -11.767742 2.370557 -10.638730 1.325857 2.938174 3.247976 -6.335367 22.826007 -0.689211 -5.179479 2.644869 0.308110 0.142120 0.161720 -3.923207 -0.335402 -7.359773 -4.735667 7.414435 21.798630 -10.158211 8.813868 -0.230656 0.615887 -13.246780 -10.246167 -27.997700 18.999796 26.119561 5.925830 7.987000 -13.944650 -8.720738 2.625745 4.219081 -20.159012 14.958299 -5.641635 28.202134 -31.935778 -6.404775 -3.458166 3.217832 0.350370 -0.076180 0.189460 0.342930 7.184256 12.029955 2.708484 -10.004690 4.640744 -5.231800 -22.422915 64.524023 -9.659730 2.143174 -1.675048 0.018150 0.224310 -0.286990 0.057730 
-2.557870 16.885260 -2.503780 -17.301912 -71.854051 13.573592 -15.066815 12.738617 3.944897 9.503711 0.628303 -42.458844 8.553006 5.090081 27.707780 -0.099345 4.261849 2.885155 0.626420 0.602410 0.267040 18.213136 -11.869511 2.329940 -11.633939 1.967512 1.957213 3.730472 -6.567904 23.882911 -0.662967 -5.293130 2.604730 0.271610 0.201370 0.202000 -4.239529 0.038027 -7.472507 -2.286024 6.551388 20.307243 -11.811324 7.686746 -2.683534 0.291649 -13.487761 -11.342043 -28.941132 20.865314 24.092800 9.064600 8.676810 -10.922230 -5.049569 3.786143 5.056467 -19.105684 16.815764 -4.065685 23.388707 -19.503189 -2.570678 -3.571175 3.297922 0.273460 -0.043630 0.162260 0.363320 4.734935 10.306787 3.491595 -10.243968 1.365494 -4.166775 -31.229692 53.451799 -10.565259 2.188958 -1.672817 0.078170 0.168880 -0.270730 0.122980 
-2.677000 16.769170 -2.411130 -22.468992 -73.726965 20.065845 -15.046740 12.508078 4.157624 11.331003 0.601643 -43.152864 5.206071 5.276948 22.214747 -0.124267 3.668658 3.101401 0.652380 0.653200 0.269230 18.266760 -11.740277 2.229725 -13.102987 2.381687 1.715181 4.602525 -6.852438 23.683328 -0.657686 -5.369248 2.574635 0.294820 0.196920 0.198890 -4.210107 -0.051795 -7.576370 -1.156892 6.444806 17.960775 -11.813213 7.557110 -3.169294 0.088847 -13.369140 -11.551146 -29.293664 21.667915 23.883818 9.176700 9.680790 -9.111310 -3.524314 5.645936 4.782925 -16.924744 17.709436 -3.196777 19.430950 -11.704678 -0.923155 -3.618527 3.310601 0.233410 -0.033620 0.164710 0.395800 3.745885 7.920765 4.111052 -11.292390 -1.590291 -2.824633 -37.294997 38.948581 -8.987027 2.360191 -1.783156 0.097730 0.140710 -0.317260 0.142160 
-2.811930 16.638280 -2.309510 -29.524909 -76.227510 27.592230 -14.960679 12.388237 4.225876 13.135662 0.839984 -42.319769 2.742600 5.270651 17.866063 -0.144239 3.372966 3.237895 0.661570 0.681240 0.268080 18.359452 -11.693191 2.168218 -14.855930 2.635458 2.146545 4.621587 -6.816449 22.471321 -0.634688 -5.375523 2.595683 0.326210 0.223940 0.162920 -4.184679 0.010690 -7.633416 0.020947 6.761058 16.190520 -11.360396 7.690455 -4.186593 -0.415667 -13.487851 -11.219240 -30.125451 22.256428 24.005109 9.062860 10.090610 -7.558960 -2.017776 8.022925 4.380767 -15.001652 18.845710 -2.761427 16.001368 -6.398352 -0.195015 -3.670458 3.245076 0.203510 -0.012860 0.143830 0.427950 3.128136 5.516731 4.073670 -14.871929 -4.191949 -0.972351 -36.047311 28.327190 -5.923845 2.546996 -1.875500 0.074020 0.170330 -0.351540 0.153190 
-2.938970 16.484260 -2.215870 -40.404916 -78.764061 38.675808 -14.859084 12.342036 4.322877 15.031212 1.258575 -41.840929 1.249030 5.516877 16.214942 -0.166159 3.508666 3.198347 0.635390 0.618750 0.286840 18.467261 -11.591774 2.096577 -16.853817 3.052692 2.469796 4.668170 -6.884213 21.611863 -0.621136 -5.392663 2.576768 0.303560 0.225270 0.162560 -4.109247 0.066293 -7.739243 1.237015 7.081466 15.220468 -11.814784 7.771059 -5.276815 -0.254317 -13.312557 -11.201516 -30.095727 22.581442 24.401071 8.130220 10.866110 -6.934100 -0.026633 10.443975 3.903751 -12.296241 20.212920 -2.412082 12.352789 -1.701632 0.005645 -3.724573 3.141726 0.237570 -0.005520 0.133050 0.406900 0.776718 3.006821 4.393048 -15.437521 -8.633392 0.378642 -33.857439 23.837295 -4.165430 2.652250 -1.926744 0.036450 0.167510 -0.336540 0.118570 
-3.030620 16.349870 -2.130300 -55.171930 -82.055310 52.853798 -14.688052 12.629240 4.233474 15.165228 1.304847 -41.024354 2.225455 5.712924 18.531186 -0.179975 3.685868 3.109566 0.656800 0.631760 0.346910 18.578102 -11.597469 2.026041 -20.153529 3.919682 2.017227 4.605872 -7.160256 22.673734 -0.642198 -5.456031 2.503025 0.304020 0.155900 0.154270 -4.072970 0.328287 -7.737383 1.526596 7.214835 15.425168 -13.420171 7.610792 -6.028257 -0.101585 -13.119566 -11.188019 -30.119121 23.295086 24.786402 7.695580 11.840310 -9.236450 0.578458 12.331328 3.576624 -9.324989 23.004939 -2.084481 11.502285 0.219672 0.035034 -3.685735 3.072894 0.303890 -0.059510 0.185850 0.373750 -0.308226 0.800364 4.620919 -14.474050 -12.855636 0.951980 -32.760280 20.981796 -3.161748 2.759493 -1.918302 0.033100 0.170010 -0.342240 0.082110 
-3.127100 16.229600 -2.070100 -101.667878 -84.560360 99.045075 -15.085413 13.192737 4.326895 15.881054 2.081209 -41.786063 3.957739 6.865518 24.844264 -0.139253 4.703510 2.785341 0.576290 0.537880 0.320160 18.164408 -11.338537 1.794176 -22.286903 4.741422 -0.068629 3.084265 -6.797043 24.941221 -0.561561 -5.321211 2.537789 0.284380 0.247100 0.126010 -4.089005 0.493732 -7.756597 -0.602866 8.573764 16.379022 -11.549213 7.611266 -10.432446 -0.501905 -13.216061 -10.003167 -29.939112 24.118246 22.840062 6.840570 12.925270 -8.515680 1.818981 16.106787 2.809852 -9.197799 24.148006 -1.964814 13.742826 2.045038 0.385446 -3.841698 2.909655 0.298060 -0.005340 0.135370 0.363980 -0.528582 -2.270865 3.704291 -16.707014 -16.126129 2.904226 -29.442638 22.701109 -2.505577 2.787943 -1.924202 -0.047560 0.251740 -0.297600 0.072580 
-3.194590 16.149980 -2.009570 -126.248507 -84.162941 124.655916 -15.390288 12.927018 4.710943 16.973244 1.860986 -44.403652 4.162372 8.132715 30.718143 -0.002594 5.716162 2.398790 0.589420 0.556290 0.270940 17.913975 -11.363594 1.578630 -22.655609 4.661342 -2.687171 1.220257 -6.308572 27.038010 -0.523715 -5.230754 2.527033 0.285440 0.271500 0.175440 -4.283218 0.312465 -7.886721 -2.545504 8.176821 17.667965 -8.956736 5.720364 -15.735179 -1.533770 -13.192059 -9.285066 -29.670545 25.653828 19.639956 9.200210 13.197160 -7.992080 4.617956 19.074795 2.849403 -8.756234 25.308419 -1.938678 12.675761 3.135151 0.328007 -3.855964 2.977697 0.264520 0.002570 0.120540 0.376730 -0.364197 -5.701751 2.885217 -16.763525 -20.117512 4.376882 -30.138033 26.619837 -2.773944 2.867135 -2.088368 -0.002110 0.199730 -0.278810 0.106730 
-3.240490 16.087230 -1.967620 -140.629267 -83.267531 139.164159 -15.496762 12.717929 4.950184 18.390431 1.776861 -45.233048 3.254386 9.354557 34.379920 0.074259 6.532359 2.085979 0.545250 0.535530 0.200450 17.865102 -11.406671 1.375493 -22.523160 4.481237 -4.589316 -1.064348 -5.800670 29.674922 -0.490773 -5.303610 2.493388 0.275520 0.321550 0.221720 -4.247461 -0.038804 -7.923453 -2.960239 7.512289 18.376167 -8.242458 5.037105 -16.264635 -1.703952 -13.010048 -8.847558 -29.523892 27.215510 18.144314 8.353750 14.782060 -7.102050 3.916347 20.152201 2.372900 -8.234990 25.161404 -1.707561 10.989727 4.345008 0.099659 -3.898635 2.998734 0.225480 0.068790 0.090590 0.362580 0.887021 -7.565871 2.899868 -15.146928 -23.519646 4.552767 -30.006015 23.981596 -2.205942 2.899822 -2.105001 0.009810 0.174910 -0.219560 0.120080 
-3.271260 16.050410 -1.931760 -147.499875 -82.318029 145.258917 -15.511922 12.748691 4.980222 19.737293 1.855882 -43.992039 1.822298 10.183936 35.593041 0.088892 6.930702 1.937591 0.523630 0.468330 0.250770 17.855811 -11.446224 1.285485 -22.391702 4.325430 -5.073158 -2.467457 -5.566026 31.831385 -0.519756 -5.401682 2.441501 0.240870 0.276050 0.206310 -4.090738 -0.417730 -7.908476 -3.020041 7.022563 19.334940 -8.010947 4.813133 -15.800209 -1.218349 -12.976628 -8.805790 -30.252578 27.017495 19.027959 6.888720 15.203730 -8.049390 2.444681 21.015081 1.770249 -10.558441 25.640650 -2.279129 12.912415 2.333190 0.284267 -3.890219 2.979050 0.292530 0.032360 0.110050 0.321070 1.383457 -8.523117 3.530558 -11.683028 -24.832443 3.520223 -26.705511 19.191275 -1.082457 2.908524 -1.969678 -0.024050 0.179830 -0.205330 0.068770 
-3.295740 16.041620 -1.907220 -149.138714 -81.550200 147.711520 -15.520573 12.537660 5.203253 21.316151 1.729518 -44.334375 -0.181688 11.182252 36.133682 0.214167 7.295678 1.848285 0.477450 0.438240 0.171560 17.903927 -11.355998 1.218936 -22.149125 4.259334 -7.210638 -2.703029 -5.668603 33.989892 -0.495553 -5.518130 2.415395 0.212000 0.338570 0.177530 -4.119366 -0.437098 -8.022042 -2.021817 6.395734 18.972547 -8.130446 4.130522 -16.626485 -1.428168 -12.901663 -9.002731 -30.158965 26.607822 19.210824 9.162830 13.588700 -5.481240 4.060889 21.935320 1.714075 -13.858771 24.365351 -3.338171 12.614419 -0.158613 0.160428 -3.885886 3.028448 0.232010 0.045120 0.065030 0.350100 0.349167 -9.506738 4.175266 -7.341170 -23.610302 2.313017 -22.821355 13.655756 -0.245391 2.942345 -1.828889 -0.018860 0.192290 -0.203390 0.122970 
-3.288180 16.047900 -1.903880 -153.887582 -79.481856 154.260364 -15.590471 12.275060 5.418197 23.277595 2.057034 -44.702139 -2.523941 12.145512 35.201348 0.333454 7.531670 1.790444 0.465650 0.434950 0.104430 17.926381 -11.152664 1.205199 -21.445092 4.658843 -11.377048 -3.224606 -5.433564 36.253193 -0.454867 -5.553784 2.415090 0.188510 0.391310 0.189200 -4.168295 -0.489537 -8.161676 -1.330802 6.076925 17.920391 -8.034584 3.310195 -18.313791 -1.473864 -12.879903 -9.277906 -30.280425 27.371817 18.114030 10.886830 13.224220 -2.518610 7.444474 23.612505 2.083689 -20.506753 23.611942 -5.157762 14.336591 -3.221411 0.187674 -3.942573 3.133156 0.160040 0.073750 0.025200 0.397900 -2.480691 -10.919599 4.283962 -2.255101 -18.072751 0.548168 -16.981581 6.886885 0.077459 2.995988 -1.607924 0.016820 0.153300 -0.222030 0.177550 
